<?xml version="1.0" encoding="utf-8"?>
<!-- Generator: Adobe Illustrator 16.0.0, SVG Export Plug-In . SVG Version: 6.00 Build 0)  -->
<!DOCTYPE svg PUBLIC "-//W3C//DTD SVG 1.1//EN" "http://www.w3.org/Graphics/SVG/1.1/DTD/svg11.dtd">
<svg version="1.1" id="ARIERE_PLAN" xmlns="http://www.w3.org/2000/svg" xmlns:xlink="http://www.w3.org/1999/xlink" x="0px"
	 y="0px" width="151.223px" height="276.5px" viewBox="0 0 151.223 276.5" enable-background="new 0 0 151.223 276.5"
	 xml:space="preserve">
<rect x="-59.055" y="-147.5" display="none" opacity="0.8" fill="#ECF0F1" enable-background="new    " width="148" height="600"/>
<rect x="68" y="130.252" fill="none" width="199.489" height="82.496"/>
<text transform="matrix(1 0 0 1 -39.3674 158.6523)" display="none" fill="#3F3F3F" enable-background="new    " font-family="'OpenSans-Italic'" font-size="40" letter-spacing="4">1948</text>
<polygon fill="#3F3F3F" points="12.356,78.5 0,78.5 6.177,72.321 "/>
<polygon fill="#3F3F3F" points="0,208.5 12.356,208.5 6.178,214.68 "/>
<polygon fill="#E74C3C" points="12.356,21.5 0,21.5 6.177,15.321 "/>
<polygon fill="#E74C3C" points="12.356,30.5 0,30.5 6.177,24.321 "/>
<polygon fill="#E74C3C" points="0,262.5 12.356,262.5 6.178,268.679 "/>
<polygon fill="#E74C3C" points="0,253.5 12.356,253.5 6.178,259.679 "/>
<rect id="_x3C_Tranche_x3E_" x="0.945" y="252.5" fill="none" width="14" height="17"/>
<rect id="_x3C_Tranche_x3E__1_" x="0.945" y="207.5" fill="none" width="14" height="8"/>
<rect id="_x3C_Tranche_x3E__2_" x="0.945" y="70.5" fill="none" width="14" height="10"/>
<rect id="_x3C_Tranche_x3E__3_" x="0.945" y="13.5" fill="none" width="14" height="18"/>
<rect x="82.86" y="129.663" fill="none" width="199.489" height="82.496"/>
<polygon fill="#3F3F3F" points="145.112,77.911 132.756,77.911 138.933,71.731 "/>
<polygon fill="#3F3F3F" points="132.756,207.91 145.112,207.91 138.934,214.09 "/>
<polygon fill="#E74C3C" points="145.112,20.911 132.756,20.911 138.933,14.731 "/>
<polygon fill="#E74C3C" points="145.112,29.911 132.756,29.911 138.933,23.731 "/>
<polygon fill="#E74C3C" points="132.756,261.91 145.112,261.91 138.934,268.09 "/>
<polygon fill="#E74C3C" points="132.756,252.91 145.112,252.91 138.934,259.09 "/>
<line opacity="0.8" fill="none" stroke="#BDC3C7" stroke-miterlimit="10" enable-background="new    " x1="-51.695" y1="-147.089" x2="-51.695" y2="451.91"/>
<rect id="_x3C_Tranche_x3E__7_" x="130.173" y="251.91" fill="none" width="14" height="17"/>
<rect id="_x3C_Tranche_x3E__6_" x="130.173" y="206.91" fill="none" width="14" height="8"/>
<rect id="_x3C_Tranche_x3E__5_" x="130.173" y="69.911" fill="none" width="14" height="10"/>
<rect id="_x3C_Tranche_x3E__4_" x="130.173" y="12.911" fill="none" width="14" height="18"/>
<path fill="none" stroke="#95A5A6" stroke-miterlimit="7" d="M150.506,267.328c0,1.662-1.755,4.082-3.458,4.082h-16.455
	c-1.706,0-3.087-2.42-3.087-4.082v-16.045c0-1.662,1.381-2.873,3.087-2.873h16.455c1.703,0,3.458,1.211,3.458,2.873V267.328z"/>
<path fill="none" stroke="#95A5A6" stroke-miterlimit="7" d="M150.506,30.329c0,1.662-1.755,4.082-3.458,4.082h-16.455
	c-1.706,0-3.087-2.42-3.087-4.082V14.284c0-1.661,1.381-2.873,3.087-2.873h16.455c1.703,0,3.458,1.212,3.458,2.873V30.329z"/>
<path fill="none" stroke="#95A5A6" stroke-miterlimit="7" d="M150.506,82.329c0,1.662-1.755,4.082-3.458,4.082h-16.455
	c-1.706,0-3.087-2.42-3.087-4.082V66.284c0-1.661,1.381-2.873,3.087-2.873h16.455c1.703,0,3.458,1.212,3.458,2.873V82.329z"/>
<path fill="none" stroke="#95A5A6" stroke-miterlimit="7" d="M150.506,218.328c0,1.662-1.755,4.082-3.458,4.082h-16.455
	c-1.706,0-3.087-2.42-3.087-4.082v-16.045c0-1.662,1.381-2.873,3.087-2.873h16.455c1.703,0,3.458,1.211,3.458,2.873V218.328z"/>
</svg>
